<svg width="16" height="16" viewBox="0 0 16 16" fill="none" xmlns="http://www.w3.org/2000/svg">
<path fill-rule="evenodd" clip-rule="evenodd" d="M10.1459 4.64592C10.1924 4.59935 10.2475 4.56241 10.3083 4.5372C10.369 4.512 10.4341 4.49902 10.4999 4.49902C10.5657 4.49902 10.6308 4.512 10.6916 4.5372C10.7523 4.56241 10.8075 4.59935 10.8539 4.64592L13.8539 7.64592C13.9005 7.69236 13.9374 7.74754 13.9626 7.80828C13.9878 7.86903 14.0008 7.93415 14.0008 7.99992C14.0008 8.06568 13.9878 8.13081 13.9626 8.19155C13.9374 8.2523 13.9005 8.30747 13.8539 8.35392L10.8539 11.3539C10.76 11.4478 10.6327 11.5005 10.4999 11.5005C10.3671 11.5005 10.2398 11.4478 10.1459 11.3539C10.052 11.26 9.99929 11.1327 9.99929 10.9999C9.99929 10.8671 10.052 10.7398 10.1459 10.6459L12.7929 7.99992L10.1459 5.35392C10.0994 5.30747 10.0624 5.2523 10.0372 5.19155C10.012 5.13081 9.99902 5.06568 9.99902 4.99992C9.99902 4.93415 10.012 4.86903 10.0372 4.80828C10.0624 4.74754 10.0994 4.69236 10.1459 4.64592Z" fill="black"/>
<path fill-rule="evenodd" clip-rule="evenodd" d="M2 8C2 7.86739 2.05268 7.74021 2.14645 7.64645C2.24021 7.55268 2.36739 7.5 2.5 7.5H13C13.1326 7.5 13.2598 7.55268 13.3536 7.64645C13.4473 7.74021 13.5 7.86739 13.5 8C13.5 8.13261 13.4473 8.25979 13.3536 8.35355C13.2598 8.44732 13.1326 8.5 13 8.5H2.5C2.36739 8.5 2.24021 8.44732 2.14645 8.35355C2.05268 8.25979 2 8.13261 2 8Z" fill="black"/>
</svg>
